<?xml version="1.0" standalone="no"?>
<!DOCTYPE svg PUBLIC "-//W3C//DTD SVG 20010904//EN"
 "http://www.w3.org/TR/2001/REC-SVG-20010904/DTD/svg10.dtd">
<svg version="1.0" xmlns="http://www.w3.org/2000/svg"
 width="99.000000pt" height="99.000000pt" viewBox="0 0 99.000000 99.000000"
 preserveAspectRatio="xMidYMid meet">
<metadata>
Created by potrace 1.14, written by Peter Selinger 2001-2017
</metadata>
<g transform="translate(0.000000,99.000000) scale(0.100000,-0.100000)"
fill="#000000" stroke="none">
<path d="M0 495 l0 -495 495 0 495 0 0 495 0 495 -495 0 -495 0 0 -495z m440
376 c0 -17 -8 -20 -52 -23 l-53 -3 -3 -137 c-2 -129 -4 -138 -22 -138 -18 0
-20 9 -22 138 l-3 137 -52 3 c-45 3 -53 6 -53 23 0 18 8 19 130 19 122 0 130
-1 130 -19z m170 -69 l5 -83 85 86 c46 47 93 85 102 85 10 0 18 -3 18 -7 0 -3
-27 -37 -61 -75 l-61 -68 57 -70 c32 -39 62 -73 66 -76 17 -10 9 -24 -15 -24
-17 0 -39 18 -77 65 -30 36 -58 65 -63 65 -6 0 -20 -10 -33 -22 -17 -16 -23
-32 -23 -65 0 -39 -2 -43 -25 -43 l-25 0 0 153 c0 85 3 157 7 161 4 4 14 5 23
4 12 -3 16 -22 20 -86z m-231 -383 c21 -7 31 -17 31 -31 0 -17 -4 -19 -22 -13
-54 18 -109 17 -129 0 -41 -38 -20 -69 61 -90 66 -17 98 -39 106 -70 20 -81
-73 -132 -181 -100 -43 12 -55 20 -53 33 4 19 10 19 80 1 64 -16 108 1 108 41
0 30 -13 37 -122 70 -40 12 -52 23 -63 58 -23 77 83 136 184 101z m356 1 c56
-13 85 -49 85 -106 0 -37 -5 -51 -31 -76 l-30 -31 30 -43 c37 -51 38 -54 9
-54 -16 0 -32 15 -53 45 -29 44 -31 45 -82 45 l-53 0 0 -45 c0 -38 -3 -45 -20
-45 -19 0 -20 7 -20 160 l0 160 63 0 c34 0 80 -5 102 -10z"/>
<path d="M614 376 c-3 -7 -4 -40 -2 -72 l3 -59 35 -3 c48 -5 107 14 121 39 18
35 1 79 -37 95 -43 18 -113 18 -120 0z"/>
</g>
</svg>
